{"title":"Femina Miss India 2012 15th April HQ XviD","uid":7192734,"size":1072726016,"categoryP":"video","categoryS":"tv_shows","magnet":"?xt=urn:btih:fb20c3fe82332c28f76649185d79d00e10230790&amp;dn=Femina+Miss+India+2012+15th+April+HQ+XviD&amp;tr=udp%3A%2F%2Ftracker.openbittorrent.com%3A80&amp;tr=udp%3A%2F%2Fopen.demonii.com%3A1337&amp;tr=udp%3A%2F%2Ftracker.coppersurfer.tk%3A6969&amp;tr=udp%3A%2F%2Fexodus.desync.com%3A6969","seeders":0,"leechers":2,"uploader":"arsenal_rocks","files":2,"time":1334685376,"description":" &lt;a href=&quot;http://www.shotpix.com/images/81888125216447767291.jpg&quot; rel=&quot;nofollow&quot; target=&quot;_NEW&quot;&gt;http://www.shotpix.com/images/81888125216447767291.jpg&lt;/a&gt;\n\n\nFemina Miss India 2012 15th April HQ XviD.avi\nFormat                                   : AVI\nFormat/Info                              : Audio Video Interleave\nFile size                                : 1 023 MiB\nDuration                                 : 1h 20mn\nOverall bit rate                         : 1 780 Kbps\nWriting library                          : Boilsoft Joiner build 2411/release\n\nVideo\nID                                       : 0\nFormat                                   : MPEG-4 Visual\nFormat profile                           : Advanced Simple@L5\nFormat settings, BVOP                    : 2\nFormat settings, QPel                    : No\nFormat settings, GMC                     : No warppoints\nFormat settings, Matrix                  : Default (H.263)\nCodec ID                                 : XVID\nCodec ID/Hint                            : XviD\nDuration                                 : 1h 20mn\nBit rate                                 : 1 640 Kbps\nWidth                                    : 512 pixels\nHeight                                   : 384 pixels\nDisplay aspect ratio                     : 4:3\nFrame rate                               : 29.970 fps\nColor space                              : YUV\nChroma subsampling                       : 4:2:0\nBit depth                                : 8 bits\nScan type                                : Progressive\nCompression mode                         : Lossy\nBits/(Pixel*Frame)                       : 0.278\nStream size                              : 943 MiB (92%)\nWriting library                          : XviD 1.2.1 (UTC 2008-12-04)\n\nAudio\nID                                       : 1\nFormat                                   : MPEG Audio\nFormat version                           : Version 1\nFormat profile                           : Layer 3\nMode                                     : Joint stereo\nMode extension                           : MS Stereo\nCodec ID                                 : 55\nCodec ID/Hint                            : MP3\nDuration                                 : 1h 20mn\nBit rate mode                            : Constant\nBit rate                                 : 128 Kbps\nChannel(s)                               : 2 channels\nSampling rate                            : 48.0 KHz\nCompression mode                         : Lossy\nDelay relative to video                  : 10ms\nStream size                              : 73.6 MiB (7%)\nAlignment                                : Split accross interleaves\nInterleave, duration                     : 33 ms (1.00 video frame)\nInterleave, preload duration             : 500 ms\nWriting library                          : LAME\n\n\n &lt;a href=&quot;\nhttp://www.shotpix.com/images/93539752601234227320.jpg&quot; rel=&quot;nofollow&quot; target=&quot;_NEW&quot;&gt;\nhttp://www.shotpix.com/images/93539752601234227320.jpg&lt;/a&gt;\n &lt;a href=&quot;\nhttp://i1125.photobucket.com/albums/l587/gif-mania/album113/x_3c520319.gif&quot; rel=&quot;nofollow&quot; target=&quot;_NEW&quot;&gt;\nhttp://i1125.photobucket.com/albums/l587/gif-mania/album113/x_3c520319.gif&lt;/a&gt; &lt;a href=&quot;\nhttp://i.minus.com/jbdy4dIfjMkrDT.PNG&quot; rel=&quot;nofollow&quot; target=&quot;_NEW&quot;&gt;\nhttp://i.minus.com/jbdy4dIfjMkrDT.PNG&lt;/a&gt;","torrent":{"xt":"urn:btih:fb20c3fe82332c28f76649185d79d00e10230790","amp;dn":"Femina+Miss+India+2012+15th+April+HQ+XviD","amp;tr":["udp%3A%2F%2Ftracker.openbittorrent.com%3A80","udp%3A%2F%2Fopen.demonii.com%3A1337","udp%3A%2F%2Ftracker.coppersurfer.tk%3A6969","udp%3A%2F%2Fexodus.desync.com%3A6969"],"infoHash":"fb20c3fe82332c28f76649185d79d00e10230790","infoHashBuffer":{"type":"Buffer","data":[251,32,195,254,130,51,44,40,247,102,73,24,93,121,208,14,16,35,7,144]},"announce":[],"urlList":[]}}